<?xml version="1.0" encoding="UTF-8"?>
<svg id="Layer_1" data-name="Layer 1" xmlns="http://www.w3.org/2000/svg" xmlns:xlink="http://www.w3.org/1999/xlink" viewBox="0 0 29 28.5">
  <defs>
    <style>
      .cls-1 {
        fill: #8e97cd;
      }

      .cls-2 {
        fill: #c0c9ff;
      }
    </style>
    <mask id="mask" x="-1.5" y="-1.75" width="32" height="32" maskUnits="userSpaceOnUse">
      <g id="mask0_204_3463" data-name="mask0 204 3463">
        <rect class="cls-1" x="-1.5" y="-1.75" width="32" height="32"/>
      </g>
    </mask>
  </defs>
  <path class="cls-2" d="m4.07,21.52c.25-.25.25-.64,0-.89-.25-.25-.64-.25-.89,0l-2.4,2.4c-.25.25-.25.64,0,.89.12.12.28.18.45.18s.32-.06.45-.18l2.4-2.4Z"/>
  <path class="cls-2" d="m19.91,4.66c-.56.56-.87,1.3-.87,2.09s.31,1.53.87,2.09c.58.58,1.33.86,2.09.86s1.51-.29,2.09-.86c.56-.56.87-1.3.87-2.09s-.31-1.53-.87-2.09c-1.15-1.15-3.03-1.15-4.18,0Zm3.29,3.29c-.66.66-1.74.66-2.4,0-.32-.32-.5-.75-.5-1.2s.18-.88.5-1.2c.33-.33.77-.5,1.2-.5s.87.17,1.2.5c.32.32.5.75.5,1.2,0,.45-.18.88-.5,1.2Z"/>
  <path class="cls-2" d="m6.05,22.61c-.25-.25-.64-.25-.89,0l-3.37,3.37c-.25.25-.25.64,0,.89.12.12.28.18.45.18s.32-.06.45-.18l3.37-3.37c.25-.25.25-.64,0-.89Z"/>
  <path class="cls-2" d="m28.02,1.17c-.06-.21-.23-.38-.44-.44-2.3-.64-4.78-.51-7.19.36-1.87.68-3.68,1.81-4.98,3.11l-1.96,1.96-7.09,1.11c-.13.02-.25.08-.35.18L1.47,11.98c-.18.18-.23.44-.14.67s.31.39.56.4l4.48.19-1.12,1.12c-.25.25-.25.64,0,.89l.65.65-1.96,3c-.16.25-.13.58.08.79l5.03,5.03c.21.21.54.24.79.08l3-1.96.65.65c.25.25.64.25.89,0l1.12-1.12.19,4.48c.01.25.17.47.4.56.07.03.15.04.23.04.16,0,.33-.06.45-.18l4.54-4.54c.09-.09.16-.22.18-.35l1.11-7.09,1.96-1.96c1.3-1.3,2.43-3.11,3.11-4.98.87-2.41.99-4.89.36-7.19ZM9.59,23.47l-4.31-4.31,1.53-2.35,2.12,2.12-.25.25c-.25.25-.25.64,0,.89.25.25.64.25.89,0l.25-.25,2.12,2.12-2.35,1.53Zm14.08-11.02l-2.1,2.1h0s-2.19,2.19-2.19,2.19c-.25.25-.25.64,0,.89.25.25.64.25.89,0l.82-.82-.81,5.19-3.38,3.38-.18-4.2,1.76-1.76c.25-.25.25-.64,0-.89-.25-.25-.64-.25-.89,0l-1.95,1.95s0,0,0,0l-1.69,1.69-.56-.56s-.01-.01-.02-.02l-2.65-2.65,7.62-7.62c.25-.25.25-.64,0-.89-.25-.25-.64-.25-.89,0l-7.62,7.62-2.65-2.65s-.01-.01-.02-.02l-.56-.56,1.69-1.69s0,0,0,0l1.95-1.95c.25-.25.25-.64,0-.89s-.64-.25-.89,0l-1.76,1.76-4.2-.18,3.38-3.38,5.19-.81-.82.82.89.89,2.18-2.18s0,0,.01-.01l2.1-2.1c1.75-1.75,5.91-4.35,10.59-3.23,1.12,4.68-1.48,8.84-3.23,10.59Z"/>
  <path class="cls-2" d="m7.24,24.69l-2.4,2.4c-.25.25-.25.64,0,.89.12.12.28.18.45.18s.32-.06.45-.18l2.4-2.4c.25-.25.25-.64,0-.89-.25-.25-.64-.25-.89,0Z"/>
</svg>