<?xml version="1.0" encoding="UTF-8"?>
<svg id="Layer_1" data-name="Layer 1" xmlns="http://www.w3.org/2000/svg" viewBox="0 0 29 28.5">
  <defs>
    <style>
      .cls-1 {
        stroke-linecap: round;
        stroke-linejoin: round;
      }

      .cls-1, .cls-2 {
        fill: none;
        stroke: #c0c9ff;
      }

      .cls-3 {
        fill: #c0c9ff;
      }
    </style>
  </defs>
  <path class="cls-3" d="m17.25,18.6c-.78.74-1.9,1.1-2.96,1.17-1.02.06-2.1-.18-2.95-.76-.8-.54-1.41-1.39-1.62-2.34-.12-.56-.08-1.15-.08-1.73,0-.61,0-1.22,0-1.84,0-.64,0-1.28,0-1.92,0-.49-.02-.96.21-1.4.4-.77,1.27-1.15,2.11-1.06.94.1,1.74.89,1.77,1.85.05,1.21.01,2.42.02,3.63,0,1.16-.16,2.46.64,3.42.72.87,1.76,1.18,2.85.97,0,0,0,0,0,.01Z"/>
  <path class="cls-3" d="m19.36,15.53c0,1.28-1.05,2.32-2.33,2.32-1.29,0-2.33-1.05-2.32-2.33,0-1.28,1.05-2.32,2.33-2.32,1.28,0,2.32,1.05,2.32,2.33Z"/>
  <g>
    <path class="cls-1" d="m23.77,22.27v2.84s0,.02.02.02h2.99-2.96s-.02-.02-.02-.03c2.88-2.53,4.7-6.23,4.7-10.37C28.5,7.1,22.33.92,14.71.92c0,0-.02,0-.02.02v3.94"/>
    <path class="cls-1" d="m5.23,6.23v-2.84s0-.02-.02-.02h-2.99,2.96s.02.02.02.03C2.32,5.95.5,9.65.5,13.78c0,7.61,6.18,13.79,13.79,13.8,0,0,.02,0,.02-.02v-3.94"/>
    <circle class="cls-2" cx="14.66" cy="14.26" r="9.22"/>
  </g>
</svg>