<?xml version="1.0" encoding="UTF-8"?>
<svg id="Exchange_Coins" data-name="Exchange Coins" xmlns="http://www.w3.org/2000/svg" xmlns:xlink="http://www.w3.org/1999/xlink" viewBox="0 0 618.01 618.01">
  <defs>
    <style>
      .cls-1 {
        fill: url(#linear-gradient-2);
      }

      .cls-2 {
        fill: #fff;
      }

      .cls-3 {
        fill: #53e4e1;
      }

      .cls-4 {
        fill: url(#linear-gradient);
      }
    </style>
    <linearGradient id="linear-gradient" x1="499.93" y1="536.54" x2="118.08" y2="81.47" gradientUnits="userSpaceOnUse">
      <stop offset="0" stop-color="#95fcf4"/>
      <stop offset=".19" stop-color="#7df2e9"/>
      <stop offset=".6" stop-color="#42dacf"/>
      <stop offset="1" stop-color="#02c1b3"/>
    </linearGradient>
    <linearGradient id="linear-gradient-2" x1="151.44" y1="151.44" x2="517.15" y2="517.15" gradientUnits="userSpaceOnUse">
      <stop offset="0" stop-color="#7afcf2"/>
      <stop offset=".35" stop-color="#6cede5"/>
      <stop offset="1" stop-color="#49c9c6"/>
    </linearGradient>
  </defs>
  <g id="LKD_NEW" data-name="LKD NEW">
    <g id="LKD_OUT" data-name="LKD OUT">
      <path class="cls-4" d="m309.01,606.01c-79.33,0-153.92-30.89-210.01-86.99C42.89,462.92,12,388.34,12,309.01s30.89-153.92,86.99-210.01C155.09,42.89,229.67,12,309.01,12s153.92,30.89,210.01,86.99c56.1,56.1,86.99,130.68,86.99,210.01s-30.89,153.92-86.99,210.01c-56.1,56.1-130.68,86.99-210.01,86.99Z"/>
      <path class="cls-3" d="m309.01,24c38.49,0,75.81,7.53,110.93,22.39,33.94,14.35,64.42,34.91,90.6,61.09,26.18,26.18,46.74,56.66,61.09,90.6,14.86,35.12,22.39,72.44,22.39,110.93s-7.53,75.81-22.39,110.93c-14.35,33.94-34.91,64.42-61.09,90.6-26.18,26.18-56.66,46.74-90.6,61.09-35.12,14.86-72.44,22.39-110.93,22.39s-75.81-7.53-110.93-22.39c-33.94-14.35-64.42-34.91-90.6-61.09s-46.74-56.66-61.09-90.6c-14.86-35.12-22.39-72.44-22.39-110.93s7.53-75.81,22.39-110.93c14.35-33.94,34.91-64.42,61.09-90.6,26.18-26.18,56.66-46.74,90.6-61.09,35.12-14.86,72.44-22.39,110.93-22.39m0-24C138.35,0,0,138.35,0,309.01s138.35,309.01,309.01,309.01,309.01-138.35,309.01-309.01S479.66,0,309.01,0h0Z"/>
    </g>
    <g id="LKD_IN" data-name="LKD IN">
      <circle class="cls-1" cx="309.01" cy="309.01" r="258.6"/>
    </g>
    <g>
      <path class="cls-2" d="m370.16,405.6c-.55.38-1.16.69-1.65,1.13-10.83,9.64-23.52,15.72-37.33,19.72-21.62,6.25-43.35,6.82-64.95.43-24.28-7.19-43.1-21.63-55.29-44.11-6.28-11.57-9.33-24.04-9.34-37.22-.02-38.21.36-76.43-.14-114.63-.31-23.33,16.86-40.44,37.33-43.62,16.52-2.57,31,1.85,42.63,14.13,7.27,7.68,10.78,16.99,10.83,27.61.18,38.05.29,76.1.61,114.15.14,16.22,4.88,30.99,16.07,43.06,16.17,17.43,36.15,23.62,59.47,19.14.45-.09.91-.17,1.37-.26.13.16.27.32.4.47Z"/>
      <path class="cls-2" d="m416.57,337.27c-.04,28.38-23.12,51.38-51.51,51.35-28.44-.03-51.46-23.16-51.38-51.64.07-28.36,23.2-51.34,51.59-51.28,28.37.07,51.35,23.16,51.31,51.57Z"/>
    </g>
  </g>
</svg>